<mxfile host="app.diagrams.net" modified="2022-05-09T07:03:26.316Z" agent="5.0 (Windows NT 10.0; Win64; x64) AppleWebKit/537.36 (KHTML, like Gecko) Chrome/101.0.4951.54 Safari/537.36" etag="9m4BaJf0C5auiQ-KiZy0" version="17.4.4" type="github">
  <diagram id="E7QA8y4zll22x5wwBxDQ" name="Page-1">
    <mxGraphModel dx="1422" dy="762" grid="1" gridSize="10" guides="1" tooltips="1" connect="1" arrows="1" fold="1" page="1" pageScale="1" pageWidth="850" pageHeight="1100" math="0" shadow="0">
      <root>
        <mxCell id="0" />
        <mxCell id="1" parent="0" />
        <mxCell id="5bXxZJFlXTmMgWdF0PHa-1" value="&lt;div&gt;&lt;font style=&quot;font-size: 17px&quot;&gt;Conception Génerale&lt;/font&gt;&lt;/div&gt;&lt;div&gt;&lt;font style=&quot;font-size: 17px&quot;&gt;&lt;font color=&quot;#6600CC&quot;&gt;Lahcène&lt;/font&gt;&lt;br&gt;&lt;/font&gt;&lt;/div&gt;" style="rounded=1;whiteSpace=wrap;html=1;fillColor=#f5f5f5;fontColor=#333333;strokeColor=#666666;" parent="1" vertex="1">
          <mxGeometry x="40" y="180" width="120" height="70" as="geometry" />
        </mxCell>
        <mxCell id="5bXxZJFlXTmMgWdF0PHa-2" value="&lt;div&gt;&lt;span style=&quot;font-size: 17px&quot;&gt;Projet Chorizo++&lt;/span&gt;&lt;/div&gt;&lt;div&gt;&lt;span style=&quot;font-size: 17px&quot;&gt;&lt;font color=&quot;#6600CC&quot;&gt;Rim&lt;/font&gt;&lt;br&gt;&lt;/span&gt;&lt;/div&gt;" style="rounded=1;whiteSpace=wrap;html=1;fillColor=#f5f5f5;fontColor=#333333;strokeColor=#666666;" parent="1" vertex="1">
          <mxGeometry x="180" y="40" width="120" height="70" as="geometry" />
        </mxCell>
        <mxCell id="5bXxZJFlXTmMgWdF0PHa-3" value="&lt;div&gt;&lt;span style=&quot;font-size: 17px&quot;&gt;SP&amp;nbsp; Bus Tracker&lt;/span&gt;&lt;/div&gt;&lt;div&gt;&lt;span style=&quot;font-size: 17px&quot;&gt;&lt;font color=&quot;#6600CC&quot;&gt;Thomas&lt;/font&gt;&lt;br&gt;&lt;/span&gt;&lt;/div&gt;" style="rounded=1;whiteSpace=wrap;html=1;fillColor=#f5f5f5;fontColor=#333333;strokeColor=#666666;" parent="1" vertex="1">
          <mxGeometry x="200" y="180" width="120" height="70" as="geometry" />
        </mxCell>
        <mxCell id="5bXxZJFlXTmMgWdF0PHa-4" value="&lt;div&gt;&lt;span style=&quot;font-size: 17px&quot;&gt;SP&amp;nbsp; Visualisation de tout les bus&lt;/span&gt;&lt;/div&gt;&lt;div&gt;&lt;span style=&quot;font-size: 17px&quot;&gt;&lt;font color=&quot;#6600CC&quot;&gt;Rim&lt;/font&gt;&lt;br&gt;&lt;/span&gt;&lt;/div&gt;" style="rounded=1;whiteSpace=wrap;html=1;fillColor=#f5f5f5;fontColor=#333333;strokeColor=#666666;" parent="1" vertex="1">
          <mxGeometry x="360" y="180" width="120" height="90" as="geometry" />
        </mxCell>
        <mxCell id="5bXxZJFlXTmMgWdF0PHa-5" value="&lt;div&gt;&lt;span style=&quot;font-size: 17px&quot;&gt;SP Highlight&lt;/span&gt;&lt;/div&gt;&lt;div&gt;&lt;span style=&quot;font-size: 17px&quot;&gt;&lt;font color=&quot;#6600CC&quot;&gt;Lahcène&lt;/font&gt;&lt;br&gt;&lt;/span&gt;&lt;/div&gt;" style="rounded=1;whiteSpace=wrap;html=1;fillColor=#f5f5f5;fontColor=#333333;strokeColor=#666666;" parent="1" vertex="1">
          <mxGeometry x="520" y="180" width="120" height="60" as="geometry" />
        </mxCell>
        <mxCell id="5bXxZJFlXTmMgWdF0PHa-6" value="&lt;div&gt;&lt;span style=&quot;font-size: 17px&quot;&gt;SP Infos Traffic&lt;/span&gt;&lt;/div&gt;&lt;div&gt;&lt;span style=&quot;font-size: 17px&quot;&gt;&lt;font color=&quot;#6600CC&quot;&gt;Hasbullah&lt;/font&gt;&lt;br&gt;&lt;/span&gt;&lt;/div&gt;" style="rounded=1;whiteSpace=wrap;html=1;fillColor=#f5f5f5;fontColor=#333333;strokeColor=#666666;" parent="1" vertex="1">
          <mxGeometry x="680" y="180" width="120" height="60" as="geometry" />
        </mxCell>
        <mxCell id="5bXxZJFlXTmMgWdF0PHa-7" value="&lt;div&gt;&lt;span style=&quot;font-size: 17px&quot;&gt;Intégration&lt;/span&gt;&lt;/div&gt;&lt;div&gt;&lt;span style=&quot;font-size: 17px&quot;&gt;&lt;font color=&quot;#6600CC&quot;&gt;Rim&lt;/font&gt;&lt;br&gt;&lt;/span&gt;&lt;/div&gt;" style="rounded=1;whiteSpace=wrap;html=1;fillColor=#f5f5f5;fontColor=#333333;strokeColor=#666666;" parent="1" vertex="1">
          <mxGeometry x="840" y="180" width="120" height="60" as="geometry" />
        </mxCell>
        <mxCell id="5bXxZJFlXTmMgWdF0PHa-8" value="&lt;div&gt;&lt;span style=&quot;font-size: 17px&quot;&gt;Intégration Chorizo++&lt;/span&gt;&lt;/div&gt;&lt;div&gt;&lt;span style=&quot;font-size: 17px&quot;&gt;&lt;font color=&quot;#6600CC&quot;&gt;Rim&lt;/font&gt;&lt;br&gt;&lt;/span&gt;&lt;/div&gt;" style="rounded=1;whiteSpace=wrap;html=1;fillColor=#f5f5f5;fontColor=#333333;strokeColor=#666666;" parent="1" vertex="1">
          <mxGeometry x="840" y="40" width="120" height="70" as="geometry" />
        </mxCell>
        <mxCell id="5bXxZJFlXTmMgWdF0PHa-9" value="" style="endArrow=none;html=1;rounded=0;fontSize=17;entryX=0.5;entryY=1;entryDx=0;entryDy=0;exitX=0.5;exitY=0;exitDx=0;exitDy=0;fillColor=#f5f5f5;strokeColor=#666666;" parent="1" source="5bXxZJFlXTmMgWdF0PHa-7" target="5bXxZJFlXTmMgWdF0PHa-8" edge="1">
          <mxGeometry width="50" height="50" relative="1" as="geometry">
            <mxPoint x="390" y="420" as="sourcePoint" />
            <mxPoint x="440" y="370" as="targetPoint" />
          </mxGeometry>
        </mxCell>
        <mxCell id="5bXxZJFlXTmMgWdF0PHa-10" value="" style="endArrow=none;html=1;rounded=0;fontSize=17;entryX=0.5;entryY=0;entryDx=0;entryDy=0;exitX=0.5;exitY=1;exitDx=0;exitDy=0;fillColor=#f5f5f5;strokeColor=#666666;" parent="1" source="5bXxZJFlXTmMgWdF0PHa-2" target="5bXxZJFlXTmMgWdF0PHa-1" edge="1">
          <mxGeometry width="50" height="50" relative="1" as="geometry">
            <mxPoint x="390" y="420" as="sourcePoint" />
            <mxPoint x="440" y="370" as="targetPoint" />
            <Array as="points">
              <mxPoint x="240" y="140" />
              <mxPoint x="100" y="140" />
            </Array>
          </mxGeometry>
        </mxCell>
        <mxCell id="5bXxZJFlXTmMgWdF0PHa-11" value="" style="endArrow=none;html=1;rounded=0;fontSize=17;exitX=0.5;exitY=0;exitDx=0;exitDy=0;entryX=0.5;entryY=1;entryDx=0;entryDy=0;fillColor=#f5f5f5;strokeColor=#666666;" parent="1" source="5bXxZJFlXTmMgWdF0PHa-3" target="5bXxZJFlXTmMgWdF0PHa-2" edge="1">
          <mxGeometry width="50" height="50" relative="1" as="geometry">
            <mxPoint x="290" y="160" as="sourcePoint" />
            <mxPoint x="340" y="110" as="targetPoint" />
            <Array as="points">
              <mxPoint x="260" y="140" />
              <mxPoint x="240" y="140" />
            </Array>
          </mxGeometry>
        </mxCell>
        <mxCell id="5bXxZJFlXTmMgWdF0PHa-12" value="" style="endArrow=none;html=1;rounded=0;fontSize=17;exitX=0.5;exitY=0;exitDx=0;exitDy=0;entryX=0.5;entryY=1;entryDx=0;entryDy=0;fillColor=#f5f5f5;strokeColor=#666666;" parent="1" source="5bXxZJFlXTmMgWdF0PHa-4" target="5bXxZJFlXTmMgWdF0PHa-2" edge="1">
          <mxGeometry width="50" height="50" relative="1" as="geometry">
            <mxPoint x="390" y="420" as="sourcePoint" />
            <mxPoint x="440" y="370" as="targetPoint" />
            <Array as="points">
              <mxPoint x="420" y="140" />
              <mxPoint x="240" y="140" />
            </Array>
          </mxGeometry>
        </mxCell>
        <mxCell id="5bXxZJFlXTmMgWdF0PHa-13" value="" style="endArrow=none;html=1;rounded=0;fontSize=17;exitX=0.5;exitY=0;exitDx=0;exitDy=0;entryX=0.5;entryY=1;entryDx=0;entryDy=0;fillColor=#f5f5f5;strokeColor=#666666;" parent="1" source="5bXxZJFlXTmMgWdF0PHa-5" target="5bXxZJFlXTmMgWdF0PHa-2" edge="1">
          <mxGeometry width="50" height="50" relative="1" as="geometry">
            <mxPoint x="390" y="420" as="sourcePoint" />
            <mxPoint x="440" y="370" as="targetPoint" />
            <Array as="points">
              <mxPoint x="580" y="140" />
              <mxPoint x="240" y="140" />
            </Array>
          </mxGeometry>
        </mxCell>
        <mxCell id="5bXxZJFlXTmMgWdF0PHa-14" value="" style="endArrow=none;html=1;rounded=0;fontSize=17;exitX=0.5;exitY=0;exitDx=0;exitDy=0;entryX=0.5;entryY=1;entryDx=0;entryDy=0;fillColor=#f5f5f5;strokeColor=#666666;" parent="1" source="5bXxZJFlXTmMgWdF0PHa-6" target="5bXxZJFlXTmMgWdF0PHa-2" edge="1">
          <mxGeometry width="50" height="50" relative="1" as="geometry">
            <mxPoint x="390" y="420" as="sourcePoint" />
            <mxPoint x="440" y="370" as="targetPoint" />
            <Array as="points">
              <mxPoint x="740" y="140" />
              <mxPoint x="240" y="140" />
            </Array>
          </mxGeometry>
        </mxCell>
        <mxCell id="5bXxZJFlXTmMgWdF0PHa-15" value="" style="endArrow=none;html=1;rounded=0;fontSize=17;exitX=0.5;exitY=0;exitDx=0;exitDy=0;entryX=0.5;entryY=1;entryDx=0;entryDy=0;fillColor=#f5f5f5;strokeColor=#666666;" parent="1" source="5bXxZJFlXTmMgWdF0PHa-7" target="5bXxZJFlXTmMgWdF0PHa-2" edge="1">
          <mxGeometry width="50" height="50" relative="1" as="geometry">
            <mxPoint x="390" y="420" as="sourcePoint" />
            <mxPoint x="440" y="370" as="targetPoint" />
            <Array as="points">
              <mxPoint x="900" y="140" />
              <mxPoint x="240" y="140" />
            </Array>
          </mxGeometry>
        </mxCell>
        <mxCell id="5bXxZJFlXTmMgWdF0PHa-16" value="&lt;div&gt;&lt;span style=&quot;font-size: 17px&quot;&gt;Conception&amp;nbsp; Bus Tracker&lt;/span&gt;&lt;/div&gt;&lt;div&gt;&lt;span style=&quot;font-size: 17px&quot;&gt;&lt;font color=&quot;#6600CC&quot;&gt;Lahcène&lt;/font&gt;&lt;br&gt;&lt;/span&gt;&lt;/div&gt;" style="rounded=1;whiteSpace=wrap;html=1;fillColor=#f5f5f5;fontColor=#333333;strokeColor=#666666;" parent="1" vertex="1">
          <mxGeometry x="200" y="280" width="120" height="70" as="geometry" />
        </mxCell>
        <mxCell id="5bXxZJFlXTmMgWdF0PHa-17" value="&lt;div&gt;&lt;span style=&quot;font-size: 17px&quot;&gt;Dev Bus Tracker&lt;/span&gt;&lt;/div&gt;&lt;div&gt;&lt;span style=&quot;font-size: 17px&quot;&gt;&lt;font color=&quot;#6600CC&quot;&gt;Thomas&lt;/font&gt;&lt;br&gt;&lt;/span&gt;&lt;/div&gt;" style="rounded=1;whiteSpace=wrap;html=1;fillColor=#f5f5f5;fontColor=#333333;strokeColor=#666666;" parent="1" vertex="1">
          <mxGeometry x="200" y="380" width="120" height="70" as="geometry" />
        </mxCell>
        <mxCell id="5bXxZJFlXTmMgWdF0PHa-18" value="&lt;div&gt;&lt;span style=&quot;font-size: 17px&quot;&gt;Test Bus Tracker&lt;/span&gt;&lt;/div&gt;&lt;div&gt;&lt;span style=&quot;font-size: 17px&quot;&gt;&lt;font color=&quot;#6600CC&quot;&gt;Thomas&lt;/font&gt;&lt;br&gt;&lt;/span&gt;&lt;/div&gt;" style="rounded=1;whiteSpace=wrap;html=1;fillColor=#f5f5f5;fontColor=#333333;strokeColor=#666666;" parent="1" vertex="1">
          <mxGeometry x="200" y="480" width="120" height="70" as="geometry" />
        </mxCell>
        <mxCell id="5bXxZJFlXTmMgWdF0PHa-19" value="&lt;div&gt;&lt;span style=&quot;font-size: 17px&quot;&gt;Conception Visualisation de tout les bus&lt;/span&gt;&lt;/div&gt;&lt;div&gt;&lt;span style=&quot;font-size: 17px&quot;&gt;&lt;font color=&quot;#6600CC&quot;&gt;Rim&lt;/font&gt;&lt;br&gt;&lt;/span&gt;&lt;/div&gt;" style="rounded=1;whiteSpace=wrap;html=1;fillColor=#f5f5f5;fontColor=#333333;strokeColor=#666666;" parent="1" vertex="1">
          <mxGeometry x="360" y="280" width="120" height="90" as="geometry" />
        </mxCell>
        <mxCell id="5bXxZJFlXTmMgWdF0PHa-20" value="&lt;div&gt;&lt;span style=&quot;font-size: 17px&quot;&gt;Dev Visualisation de tout les bus&lt;/span&gt;&lt;/div&gt;&lt;div&gt;&lt;span style=&quot;font-size: 17px&quot;&gt;&lt;font color=&quot;#6600CC&quot;&gt;Lahcène&lt;/font&gt;&lt;br&gt;&lt;/span&gt;&lt;/div&gt;" style="rounded=1;whiteSpace=wrap;html=1;fillColor=#f5f5f5;fontColor=#333333;strokeColor=#666666;" parent="1" vertex="1">
          <mxGeometry x="360" y="380" width="120" height="90" as="geometry" />
        </mxCell>
        <mxCell id="5bXxZJFlXTmMgWdF0PHa-21" value="&lt;div&gt;&lt;span style=&quot;font-size: 17px&quot;&gt;Test Visualisation de tout les bus&lt;/span&gt;&lt;/div&gt;&lt;div&gt;&lt;span style=&quot;font-size: 17px&quot;&gt;&lt;font color=&quot;#6600CC&quot;&gt;Lahcène&lt;/font&gt;&lt;br&gt;&lt;/span&gt;&lt;/div&gt;&lt;div&gt;&lt;span style=&quot;font-size: 17px&quot;&gt;&lt;br&gt;&lt;/span&gt;&lt;/div&gt;" style="rounded=1;whiteSpace=wrap;html=1;fillColor=#f5f5f5;fontColor=#333333;strokeColor=#666666;" parent="1" vertex="1">
          <mxGeometry x="360" y="480" width="120" height="110" as="geometry" />
        </mxCell>
        <mxCell id="5bXxZJFlXTmMgWdF0PHa-22" value="&lt;div&gt;&lt;span style=&quot;font-size: 17px&quot;&gt;Conception Highlight&lt;/span&gt;&lt;/div&gt;&lt;div&gt;&lt;span style=&quot;font-size: 17px&quot;&gt;&lt;font color=&quot;#6600CC&quot;&gt;Lahcène&lt;/font&gt;&lt;br&gt;&lt;/span&gt;&lt;/div&gt;" style="rounded=1;whiteSpace=wrap;html=1;fillColor=#f5f5f5;fontColor=#333333;strokeColor=#666666;" parent="1" vertex="1">
          <mxGeometry x="520" y="280" width="120" height="70" as="geometry" />
        </mxCell>
        <mxCell id="5bXxZJFlXTmMgWdF0PHa-23" value="&lt;div&gt;&lt;span style=&quot;font-size: 17px&quot;&gt;Dev Highlight&lt;/span&gt;&lt;/div&gt;&lt;div&gt;&lt;font color=&quot;#6600cc&quot;&gt;&lt;span style=&quot;font-size: 17px&quot;&gt;Hasbullah&lt;/span&gt;&lt;/font&gt;&lt;/div&gt;" style="rounded=1;whiteSpace=wrap;html=1;fillColor=#f5f5f5;fontColor=#333333;strokeColor=#666666;" parent="1" vertex="1">
          <mxGeometry x="520" y="380" width="120" height="60" as="geometry" />
        </mxCell>
        <mxCell id="5bXxZJFlXTmMgWdF0PHa-24" value="&lt;div&gt;&lt;span style=&quot;font-size: 17px&quot;&gt;Test Highlight&lt;/span&gt;&lt;/div&gt;&lt;div&gt;&lt;span style=&quot;font-size: 17px&quot;&gt;&lt;font color=&quot;#6600cc&quot;&gt;Hasbullah&lt;/font&gt;&lt;/span&gt;&lt;/div&gt;" style="rounded=1;whiteSpace=wrap;html=1;fillColor=#f5f5f5;fontColor=#333333;strokeColor=#666666;" parent="1" vertex="1">
          <mxGeometry x="520" y="480" width="120" height="60" as="geometry" />
        </mxCell>
        <mxCell id="5bXxZJFlXTmMgWdF0PHa-25" value="&lt;div&gt;&lt;span style=&quot;font-size: 17px&quot;&gt;Conception Infos Traffic&lt;/span&gt;&lt;/div&gt;&lt;div&gt;&lt;span style=&quot;font-size: 17px&quot;&gt;&lt;font color=&quot;#6600CC&quot;&gt;Thomas&lt;/font&gt;&lt;br&gt;&lt;/span&gt;&lt;/div&gt;" style="rounded=1;whiteSpace=wrap;html=1;fillColor=#f5f5f5;fontColor=#333333;strokeColor=#666666;" parent="1" vertex="1">
          <mxGeometry x="680" y="280" width="120" height="70" as="geometry" />
        </mxCell>
        <mxCell id="5bXxZJFlXTmMgWdF0PHa-26" value="&lt;div&gt;&lt;span style=&quot;font-size: 17px&quot;&gt;Dev Infos Traffic&lt;/span&gt;&lt;/div&gt;&lt;div&gt;&lt;span style=&quot;font-size: 17px&quot;&gt;&lt;font color=&quot;#6600CC&quot;&gt;Thomas&lt;/font&gt;&lt;br&gt;&lt;/span&gt;&lt;/div&gt;" style="rounded=1;whiteSpace=wrap;html=1;fillColor=#f5f5f5;fontColor=#333333;strokeColor=#666666;" parent="1" vertex="1">
          <mxGeometry x="680" y="380" width="120" height="70" as="geometry" />
        </mxCell>
        <mxCell id="5bXxZJFlXTmMgWdF0PHa-27" value="&lt;div&gt;&lt;span style=&quot;font-size: 17px&quot;&gt;Test Infos Traffic&lt;/span&gt;&lt;/div&gt;&lt;div&gt;&lt;span style=&quot;font-size: 17px&quot;&gt;&lt;font color=&quot;#6600CC&quot;&gt;Thomas&lt;/font&gt;&lt;br&gt;&lt;/span&gt;&lt;/div&gt;" style="rounded=1;whiteSpace=wrap;html=1;fillColor=#f5f5f5;fontColor=#333333;strokeColor=#666666;" parent="1" vertex="1">
          <mxGeometry x="680" y="480" width="120" height="70" as="geometry" />
        </mxCell>
        <mxCell id="5bXxZJFlXTmMgWdF0PHa-28" value="" style="endArrow=none;html=1;rounded=0;fontSize=17;exitX=0.5;exitY=1;exitDx=0;exitDy=0;entryX=0.5;entryY=0;entryDx=0;entryDy=0;fillColor=#f5f5f5;strokeColor=#666666;" parent="1" source="5bXxZJFlXTmMgWdF0PHa-3" target="5bXxZJFlXTmMgWdF0PHa-16" edge="1">
          <mxGeometry width="50" height="50" relative="1" as="geometry">
            <mxPoint x="390" y="420" as="sourcePoint" />
            <mxPoint x="440" y="370" as="targetPoint" />
          </mxGeometry>
        </mxCell>
        <mxCell id="5bXxZJFlXTmMgWdF0PHa-29" value="" style="endArrow=none;html=1;rounded=0;fontSize=17;exitX=0.5;exitY=1;exitDx=0;exitDy=0;entryX=0.5;entryY=0;entryDx=0;entryDy=0;fillColor=#f5f5f5;strokeColor=#666666;" parent="1" source="5bXxZJFlXTmMgWdF0PHa-16" target="5bXxZJFlXTmMgWdF0PHa-17" edge="1">
          <mxGeometry width="50" height="50" relative="1" as="geometry">
            <mxPoint x="390" y="420" as="sourcePoint" />
            <mxPoint x="440" y="370" as="targetPoint" />
          </mxGeometry>
        </mxCell>
        <mxCell id="5bXxZJFlXTmMgWdF0PHa-30" value="" style="endArrow=none;html=1;rounded=0;fontSize=17;exitX=0.5;exitY=1;exitDx=0;exitDy=0;entryX=0.5;entryY=0;entryDx=0;entryDy=0;fillColor=#f5f5f5;strokeColor=#666666;" parent="1" source="5bXxZJFlXTmMgWdF0PHa-17" target="5bXxZJFlXTmMgWdF0PHa-18" edge="1">
          <mxGeometry width="50" height="50" relative="1" as="geometry">
            <mxPoint x="390" y="420" as="sourcePoint" />
            <mxPoint x="440" y="370" as="targetPoint" />
          </mxGeometry>
        </mxCell>
        <mxCell id="5bXxZJFlXTmMgWdF0PHa-31" value="" style="endArrow=none;html=1;rounded=0;fontSize=17;exitX=0.5;exitY=1;exitDx=0;exitDy=0;entryX=0.5;entryY=0;entryDx=0;entryDy=0;fillColor=#f5f5f5;strokeColor=#666666;" parent="1" source="5bXxZJFlXTmMgWdF0PHa-4" target="5bXxZJFlXTmMgWdF0PHa-19" edge="1">
          <mxGeometry width="50" height="50" relative="1" as="geometry">
            <mxPoint x="284" y="250" as="sourcePoint" />
            <mxPoint x="284" y="290" as="targetPoint" />
          </mxGeometry>
        </mxCell>
        <mxCell id="5bXxZJFlXTmMgWdF0PHa-32" value="" style="endArrow=none;html=1;rounded=0;fontSize=17;exitX=0.5;exitY=1;exitDx=0;exitDy=0;entryX=0.5;entryY=0;entryDx=0;entryDy=0;fillColor=#f5f5f5;strokeColor=#666666;" parent="1" source="5bXxZJFlXTmMgWdF0PHa-19" target="5bXxZJFlXTmMgWdF0PHa-20" edge="1">
          <mxGeometry width="50" height="50" relative="1" as="geometry">
            <mxPoint x="284" y="350" as="sourcePoint" />
            <mxPoint x="284" y="390" as="targetPoint" />
          </mxGeometry>
        </mxCell>
        <mxCell id="5bXxZJFlXTmMgWdF0PHa-33" value="" style="endArrow=none;html=1;rounded=0;fontSize=17;exitX=0.5;exitY=1;exitDx=0;exitDy=0;entryX=0.5;entryY=0;entryDx=0;entryDy=0;fillColor=#f5f5f5;strokeColor=#666666;" parent="1" source="5bXxZJFlXTmMgWdF0PHa-20" target="5bXxZJFlXTmMgWdF0PHa-21" edge="1">
          <mxGeometry width="50" height="50" relative="1" as="geometry">
            <mxPoint x="284" y="450" as="sourcePoint" />
            <mxPoint x="284" y="490" as="targetPoint" />
          </mxGeometry>
        </mxCell>
        <mxCell id="5bXxZJFlXTmMgWdF0PHa-34" value="" style="endArrow=none;html=1;rounded=0;fontSize=17;exitX=0.5;exitY=1;exitDx=0;exitDy=0;entryX=0.5;entryY=0;entryDx=0;entryDy=0;fillColor=#f5f5f5;strokeColor=#666666;" parent="1" source="5bXxZJFlXTmMgWdF0PHa-5" target="5bXxZJFlXTmMgWdF0PHa-22" edge="1">
          <mxGeometry width="50" height="50" relative="1" as="geometry">
            <mxPoint x="280" y="260" as="sourcePoint" />
            <mxPoint x="280" y="300" as="targetPoint" />
          </mxGeometry>
        </mxCell>
        <mxCell id="5bXxZJFlXTmMgWdF0PHa-35" value="" style="endArrow=none;html=1;rounded=0;fontSize=17;exitX=0.5;exitY=1;exitDx=0;exitDy=0;entryX=0.5;entryY=0;entryDx=0;entryDy=0;fillColor=#f5f5f5;strokeColor=#666666;" parent="1" source="5bXxZJFlXTmMgWdF0PHa-22" target="5bXxZJFlXTmMgWdF0PHa-23" edge="1">
          <mxGeometry width="50" height="50" relative="1" as="geometry">
            <mxPoint x="280" y="360" as="sourcePoint" />
            <mxPoint x="280" y="400" as="targetPoint" />
          </mxGeometry>
        </mxCell>
        <mxCell id="5bXxZJFlXTmMgWdF0PHa-36" value="" style="endArrow=none;html=1;rounded=0;fontSize=17;exitX=0.5;exitY=1;exitDx=0;exitDy=0;entryX=0.5;entryY=0;entryDx=0;entryDy=0;fillColor=#f5f5f5;strokeColor=#666666;" parent="1" source="5bXxZJFlXTmMgWdF0PHa-23" target="5bXxZJFlXTmMgWdF0PHa-24" edge="1">
          <mxGeometry width="50" height="50" relative="1" as="geometry">
            <mxPoint x="280" y="460" as="sourcePoint" />
            <mxPoint x="280" y="500" as="targetPoint" />
          </mxGeometry>
        </mxCell>
        <mxCell id="5bXxZJFlXTmMgWdF0PHa-37" value="" style="endArrow=none;html=1;rounded=0;fontSize=17;exitX=0.5;exitY=1;exitDx=0;exitDy=0;entryX=0.5;entryY=0;entryDx=0;entryDy=0;fillColor=#f5f5f5;strokeColor=#666666;" parent="1" source="5bXxZJFlXTmMgWdF0PHa-6" target="5bXxZJFlXTmMgWdF0PHa-25" edge="1">
          <mxGeometry width="50" height="50" relative="1" as="geometry">
            <mxPoint x="590" y="250" as="sourcePoint" />
            <mxPoint x="590" y="290" as="targetPoint" />
          </mxGeometry>
        </mxCell>
        <mxCell id="5bXxZJFlXTmMgWdF0PHa-38" value="" style="endArrow=none;html=1;rounded=0;fontSize=17;exitX=0.5;exitY=1;exitDx=0;exitDy=0;entryX=0.5;entryY=0;entryDx=0;entryDy=0;fillColor=#f5f5f5;strokeColor=#666666;" parent="1" source="5bXxZJFlXTmMgWdF0PHa-25" target="5bXxZJFlXTmMgWdF0PHa-26" edge="1">
          <mxGeometry width="50" height="50" relative="1" as="geometry">
            <mxPoint x="590" y="350" as="sourcePoint" />
            <mxPoint x="590" y="390" as="targetPoint" />
          </mxGeometry>
        </mxCell>
        <mxCell id="5bXxZJFlXTmMgWdF0PHa-39" value="" style="endArrow=none;html=1;rounded=0;fontSize=17;exitX=0.5;exitY=1;exitDx=0;exitDy=0;entryX=0.5;entryY=0;entryDx=0;entryDy=0;fillColor=#f5f5f5;strokeColor=#666666;" parent="1" source="5bXxZJFlXTmMgWdF0PHa-26" target="5bXxZJFlXTmMgWdF0PHa-27" edge="1">
          <mxGeometry width="50" height="50" relative="1" as="geometry">
            <mxPoint x="590" y="450" as="sourcePoint" />
            <mxPoint x="590" y="490" as="targetPoint" />
          </mxGeometry>
        </mxCell>
      </root>
    </mxGraphModel>
  </diagram>
</mxfile>
